M48
; DRILL file {KiCad 8.0.3} date 2025-02-21T21:59:17+0000
; FORMAT={-:-/ absolute / metric / decimal}
; #@! TF.CreationDate,2025-02-21T21:59:17+00:00
; #@! TF.GenerationSoftware,Kicad,Pcbnew,8.0.3
; #@! TF.FileFunction,Plated,1,2,PTH
FMAT,2
METRIC
; #@! TA.AperFunction,Plated,PTH,ViaDrill
T1C0.300
; #@! TA.AperFunction,Plated,PTH,ComponentDrill
T2C0.800
; #@! TA.AperFunction,Plated,PTH,ComponentDrill
T3C0.900
; #@! TA.AperFunction,Plated,PTH,ComponentDrill
T4C1.000
; #@! TA.AperFunction,Plated,PTH,ComponentDrill
T5C1.200
%
G90
G05
T1
X66.04Y-72.39
X66.04Y-73.66
X66.04Y-74.93
X66.04Y-76.2
X66.04Y-77.47
X66.04Y-78.74
X66.04Y-80.01
X66.04Y-81.28
X66.04Y-82.55
X67.31Y-72.39
X67.31Y-73.66
X67.31Y-74.93
X67.31Y-76.2
X67.31Y-77.47
X67.31Y-78.74
X67.31Y-80.01
X67.31Y-81.28
X67.31Y-82.55
X68.58Y-72.39
X68.58Y-73.66
X68.58Y-74.93
X68.58Y-76.2
X68.58Y-77.47
X68.58Y-78.74
X68.58Y-80.01
X68.58Y-81.28
X68.58Y-82.55
X69.85Y-72.39
X69.85Y-73.66
X69.85Y-74.93
X69.85Y-76.2
X69.85Y-77.47
X69.85Y-78.74
X69.85Y-80.01
X69.85Y-81.28
X69.85Y-82.55
X71.12Y-72.39
X71.12Y-73.66
X71.12Y-74.93
X71.12Y-76.2
X71.12Y-77.47
X71.12Y-78.74
X71.12Y-80.01
X71.12Y-81.28
X71.12Y-82.55
T2
X50.8Y-55.88
X50.8Y-90.17
X50.8Y-97.79
X58.42Y-55.88
X58.42Y-90.17
X58.42Y-97.79
T3
X58.42Y-62.23
X58.42Y-64.77
X69.85Y-87.63
X72.39Y-87.63
T4
X40.36Y-25.4
X40.36Y-27.94
X40.36Y-30.48
X40.36Y-33.02
X40.36Y-35.56
X40.36Y-38.1
X40.36Y-40.64
X40.36Y-43.18
X40.36Y-45.72
X40.36Y-48.26
X40.36Y-50.8
X40.36Y-53.34
X40.36Y-55.88
X40.36Y-58.42
X40.36Y-60.96
X40.36Y-63.5
X40.36Y-66.04
X40.36Y-68.58
X40.36Y-71.12
X40.36Y-73.66
X40.36Y-76.2
X40.36Y-78.74
X40.36Y-81.28
X40.36Y-83.82
X40.36Y-86.36
X40.36Y-88.9
X40.36Y-91.44
X40.36Y-93.98
X40.36Y-96.52
X40.36Y-99.06
X40.36Y-101.6
X40.36Y-104.14
X45.44Y-25.4
X45.44Y-27.94
X45.44Y-30.48
X45.44Y-33.02
X45.44Y-35.56
X45.44Y-38.1
X45.44Y-40.64
X45.44Y-43.18
X45.44Y-45.72
X45.44Y-48.26
X45.44Y-50.8
X45.44Y-53.34
X45.44Y-55.88
X45.44Y-58.42
X45.44Y-60.96
X45.44Y-63.5
X45.44Y-66.04
X45.44Y-68.58
X45.44Y-71.12
X45.44Y-73.66
X45.44Y-76.2
X45.44Y-78.74
X45.44Y-81.28
X45.44Y-83.82
X45.44Y-86.36
X45.44Y-88.9
X45.44Y-91.44
X45.44Y-93.98
X45.44Y-96.52
X45.44Y-99.06
X45.44Y-101.6
X45.44Y-104.14
X63.5Y-104.14
X66.04Y-104.14
T5
X80.766Y-87.864G85X80.766Y-84.664
G05
X80.766Y-95.764G85X80.766Y-92.564
G05
X79.68Y-28.695G85X82.88Y-28.695
G05
X79.68Y-40.125G85X82.88Y-40.125
G05
X79.68Y-51.555G85X82.88Y-51.555
G05
X79.68Y-62.985G85X82.88Y-62.985
G05
X87.58Y-28.695G85X90.78Y-28.695
G05
X87.58Y-40.125G85X90.78Y-40.125
G05
X87.58Y-51.555G85X90.78Y-51.555
G05
X87.58Y-62.985G85X90.78Y-62.985
G05
M30
