%TF.GenerationSoftware,KiCad,Pcbnew,8.0.3*%
%TF.CreationDate,2025-02-21T21:59:22+00:00*%
%TF.ProjectId,HP Server PSU Backplane,48502053-6572-4766-9572-205053552042,rev?*%
%TF.SameCoordinates,Original*%
%TF.FileFunction,Legend,Bot*%
%TF.FilePolarity,Positive*%
%FSLAX46Y46*%
G04 Gerber Fmt 4.6, Leading zero omitted, Abs format (unit mm)*
G04 Created by KiCad (PCBNEW 8.0.3) date 2025-02-21 21:59:22*
%MOMM*%
%LPD*%
G01*
G04 APERTURE LIST*
%ADD10C,0.150000*%
%ADD11C,0.120000*%
G04 APERTURE END LIST*
D10*
X85550333Y-35770319D02*
X85550333Y-36484604D01*
X85550333Y-36484604D02*
X85597952Y-36627461D01*
X85597952Y-36627461D02*
X85693190Y-36722700D01*
X85693190Y-36722700D02*
X85836047Y-36770319D01*
X85836047Y-36770319D02*
X85931285Y-36770319D01*
X85169380Y-35770319D02*
X84550333Y-35770319D01*
X84550333Y-35770319D02*
X84883666Y-36151271D01*
X84883666Y-36151271D02*
X84740809Y-36151271D01*
X84740809Y-36151271D02*
X84645571Y-36198890D01*
X84645571Y-36198890D02*
X84597952Y-36246509D01*
X84597952Y-36246509D02*
X84550333Y-36341747D01*
X84550333Y-36341747D02*
X84550333Y-36579842D01*
X84550333Y-36579842D02*
X84597952Y-36675080D01*
X84597952Y-36675080D02*
X84645571Y-36722700D01*
X84645571Y-36722700D02*
X84740809Y-36770319D01*
X84740809Y-36770319D02*
X85026523Y-36770319D01*
X85026523Y-36770319D02*
X85121761Y-36722700D01*
X85121761Y-36722700D02*
X85169380Y-36675080D01*
X78358951Y-26229366D02*
X77597047Y-26229366D01*
X77977999Y-26610319D02*
X77977999Y-25848414D01*
X85550333Y-70060319D02*
X85550333Y-70774604D01*
X85550333Y-70774604D02*
X85597952Y-70917461D01*
X85597952Y-70917461D02*
X85693190Y-71012700D01*
X85693190Y-71012700D02*
X85836047Y-71060319D01*
X85836047Y-71060319D02*
X85931285Y-71060319D01*
X84645571Y-70060319D02*
X84836047Y-70060319D01*
X84836047Y-70060319D02*
X84931285Y-70107938D01*
X84931285Y-70107938D02*
X84978904Y-70155557D01*
X84978904Y-70155557D02*
X85074142Y-70298414D01*
X85074142Y-70298414D02*
X85121761Y-70488890D01*
X85121761Y-70488890D02*
X85121761Y-70869842D01*
X85121761Y-70869842D02*
X85074142Y-70965080D01*
X85074142Y-70965080D02*
X85026523Y-71012700D01*
X85026523Y-71012700D02*
X84931285Y-71060319D01*
X84931285Y-71060319D02*
X84740809Y-71060319D01*
X84740809Y-71060319D02*
X84645571Y-71012700D01*
X84645571Y-71012700D02*
X84597952Y-70965080D01*
X84597952Y-70965080D02*
X84550333Y-70869842D01*
X84550333Y-70869842D02*
X84550333Y-70631747D01*
X84550333Y-70631747D02*
X84597952Y-70536509D01*
X84597952Y-70536509D02*
X84645571Y-70488890D01*
X84645571Y-70488890D02*
X84740809Y-70441271D01*
X84740809Y-70441271D02*
X84931285Y-70441271D01*
X84931285Y-70441271D02*
X85026523Y-70488890D01*
X85026523Y-70488890D02*
X85074142Y-70536509D01*
X85074142Y-70536509D02*
X85121761Y-70631747D01*
X78358951Y-60519366D02*
X77597047Y-60519366D01*
X77977999Y-60900319D02*
X77977999Y-60138414D01*
X85550333Y-58630319D02*
X85550333Y-59344604D01*
X85550333Y-59344604D02*
X85597952Y-59487461D01*
X85597952Y-59487461D02*
X85693190Y-59582700D01*
X85693190Y-59582700D02*
X85836047Y-59630319D01*
X85836047Y-59630319D02*
X85931285Y-59630319D01*
X84597952Y-58630319D02*
X85074142Y-58630319D01*
X85074142Y-58630319D02*
X85121761Y-59106509D01*
X85121761Y-59106509D02*
X85074142Y-59058890D01*
X85074142Y-59058890D02*
X84978904Y-59011271D01*
X84978904Y-59011271D02*
X84740809Y-59011271D01*
X84740809Y-59011271D02*
X84645571Y-59058890D01*
X84645571Y-59058890D02*
X84597952Y-59106509D01*
X84597952Y-59106509D02*
X84550333Y-59201747D01*
X84550333Y-59201747D02*
X84550333Y-59439842D01*
X84550333Y-59439842D02*
X84597952Y-59535080D01*
X84597952Y-59535080D02*
X84645571Y-59582700D01*
X84645571Y-59582700D02*
X84740809Y-59630319D01*
X84740809Y-59630319D02*
X84978904Y-59630319D01*
X84978904Y-59630319D02*
X85074142Y-59582700D01*
X85074142Y-59582700D02*
X85121761Y-59535080D01*
X78358951Y-49089366D02*
X77597047Y-49089366D01*
X77977999Y-49470319D02*
X77977999Y-48708414D01*
X85550333Y-47200319D02*
X85550333Y-47914604D01*
X85550333Y-47914604D02*
X85597952Y-48057461D01*
X85597952Y-48057461D02*
X85693190Y-48152700D01*
X85693190Y-48152700D02*
X85836047Y-48200319D01*
X85836047Y-48200319D02*
X85931285Y-48200319D01*
X84645571Y-47533652D02*
X84645571Y-48200319D01*
X84883666Y-47152700D02*
X85121761Y-47866985D01*
X85121761Y-47866985D02*
X84502714Y-47866985D01*
X78358951Y-37659366D02*
X77597047Y-37659366D01*
X77977999Y-38040319D02*
X77977999Y-37278414D01*
X87840319Y-89893666D02*
X88554604Y-89893666D01*
X88554604Y-89893666D02*
X88697461Y-89846047D01*
X88697461Y-89846047D02*
X88792700Y-89750809D01*
X88792700Y-89750809D02*
X88840319Y-89607952D01*
X88840319Y-89607952D02*
X88840319Y-89512714D01*
X87935557Y-90322238D02*
X87887938Y-90369857D01*
X87887938Y-90369857D02*
X87840319Y-90465095D01*
X87840319Y-90465095D02*
X87840319Y-90703190D01*
X87840319Y-90703190D02*
X87887938Y-90798428D01*
X87887938Y-90798428D02*
X87935557Y-90846047D01*
X87935557Y-90846047D02*
X88030795Y-90893666D01*
X88030795Y-90893666D02*
X88126033Y-90893666D01*
X88126033Y-90893666D02*
X88268890Y-90846047D01*
X88268890Y-90846047D02*
X88840319Y-90274619D01*
X88840319Y-90274619D02*
X88840319Y-90893666D01*
X78299366Y-97085048D02*
X78299366Y-97846953D01*
X78680319Y-97466000D02*
X77918414Y-97466000D01*
X61577200Y-102806667D02*
X61624819Y-102949524D01*
X61624819Y-102949524D02*
X61624819Y-103187619D01*
X61624819Y-103187619D02*
X61577200Y-103282857D01*
X61577200Y-103282857D02*
X61529580Y-103330476D01*
X61529580Y-103330476D02*
X61434342Y-103378095D01*
X61434342Y-103378095D02*
X61339104Y-103378095D01*
X61339104Y-103378095D02*
X61243866Y-103330476D01*
X61243866Y-103330476D02*
X61196247Y-103282857D01*
X61196247Y-103282857D02*
X61148628Y-103187619D01*
X61148628Y-103187619D02*
X61101009Y-102997143D01*
X61101009Y-102997143D02*
X61053390Y-102901905D01*
X61053390Y-102901905D02*
X61005771Y-102854286D01*
X61005771Y-102854286D02*
X60910533Y-102806667D01*
X60910533Y-102806667D02*
X60815295Y-102806667D01*
X60815295Y-102806667D02*
X60720057Y-102854286D01*
X60720057Y-102854286D02*
X60672438Y-102901905D01*
X60672438Y-102901905D02*
X60624819Y-102997143D01*
X60624819Y-102997143D02*
X60624819Y-103235238D01*
X60624819Y-103235238D02*
X60672438Y-103378095D01*
X60624819Y-103711429D02*
X61624819Y-103949524D01*
X61624819Y-103949524D02*
X60910533Y-104140000D01*
X60910533Y-104140000D02*
X61624819Y-104330476D01*
X61624819Y-104330476D02*
X60624819Y-104568572D01*
X61624819Y-105473333D02*
X61624819Y-104901905D01*
X61624819Y-105187619D02*
X60624819Y-105187619D01*
X60624819Y-105187619D02*
X60767676Y-105092381D01*
X60767676Y-105092381D02*
X60862914Y-104997143D01*
X60862914Y-104997143D02*
X60910533Y-104901905D01*
X62834819Y-62761905D02*
X61834819Y-62761905D01*
X61834819Y-62761905D02*
X61834819Y-63000000D01*
X61834819Y-63000000D02*
X61882438Y-63142857D01*
X61882438Y-63142857D02*
X61977676Y-63238095D01*
X61977676Y-63238095D02*
X62072914Y-63285714D01*
X62072914Y-63285714D02*
X62263390Y-63333333D01*
X62263390Y-63333333D02*
X62406247Y-63333333D01*
X62406247Y-63333333D02*
X62596723Y-63285714D01*
X62596723Y-63285714D02*
X62691961Y-63238095D01*
X62691961Y-63238095D02*
X62787200Y-63142857D01*
X62787200Y-63142857D02*
X62834819Y-63000000D01*
X62834819Y-63000000D02*
X62834819Y-62761905D01*
X61930057Y-63714286D02*
X61882438Y-63761905D01*
X61882438Y-63761905D02*
X61834819Y-63857143D01*
X61834819Y-63857143D02*
X61834819Y-64095238D01*
X61834819Y-64095238D02*
X61882438Y-64190476D01*
X61882438Y-64190476D02*
X61930057Y-64238095D01*
X61930057Y-64238095D02*
X62025295Y-64285714D01*
X62025295Y-64285714D02*
X62120533Y-64285714D01*
X62120533Y-64285714D02*
X62263390Y-64238095D01*
X62263390Y-64238095D02*
X62834819Y-63666667D01*
X62834819Y-63666667D02*
X62834819Y-64285714D01*
X71858094Y-84124819D02*
X71858094Y-83124819D01*
X71858094Y-83124819D02*
X71619999Y-83124819D01*
X71619999Y-83124819D02*
X71477142Y-83172438D01*
X71477142Y-83172438D02*
X71381904Y-83267676D01*
X71381904Y-83267676D02*
X71334285Y-83362914D01*
X71334285Y-83362914D02*
X71286666Y-83553390D01*
X71286666Y-83553390D02*
X71286666Y-83696247D01*
X71286666Y-83696247D02*
X71334285Y-83886723D01*
X71334285Y-83886723D02*
X71381904Y-83981961D01*
X71381904Y-83981961D02*
X71477142Y-84077200D01*
X71477142Y-84077200D02*
X71619999Y-84124819D01*
X71619999Y-84124819D02*
X71858094Y-84124819D01*
X70334285Y-84124819D02*
X70905713Y-84124819D01*
X70619999Y-84124819D02*
X70619999Y-83124819D01*
X70619999Y-83124819D02*
X70715237Y-83267676D01*
X70715237Y-83267676D02*
X70810475Y-83362914D01*
X70810475Y-83362914D02*
X70905713Y-83410533D01*
D11*
%TO.C,J3*%
X77330000Y-25520500D02*
X77330000Y-35439500D01*
X93180000Y-35439500D02*
X77330000Y-35439500D01*
X93218000Y-25520500D02*
X77330000Y-25520500D01*
X93218000Y-25520500D02*
X93218000Y-35439500D01*
%TO.C,J6*%
X77330000Y-59810500D02*
X77330000Y-69729500D01*
X93180000Y-69729500D02*
X77330000Y-69729500D01*
X93218000Y-59810500D02*
X77330000Y-59810500D01*
X93218000Y-59810500D02*
X93218000Y-69729500D01*
%TO.C,J5*%
X77330000Y-48380500D02*
X77330000Y-58299500D01*
X93180000Y-58299500D02*
X77330000Y-58299500D01*
X93218000Y-48380500D02*
X77330000Y-48380500D01*
X93218000Y-48380500D02*
X93218000Y-58299500D01*
%TO.C,J4*%
X77330000Y-36950500D02*
X77330000Y-46869500D01*
X93180000Y-46869500D02*
X77330000Y-46869500D01*
X93218000Y-36950500D02*
X77330000Y-36950500D01*
X93218000Y-36950500D02*
X93218000Y-46869500D01*
%TO.C,J2*%
X77590500Y-98114000D02*
X87509500Y-98114000D01*
X87509500Y-82264000D02*
X87509500Y-98114000D01*
X77590500Y-82226000D02*
X77590500Y-98114000D01*
X77590500Y-82226000D02*
X87509500Y-82226000D01*
%TO.C,SW1*%
X67370000Y-105470000D02*
X64770000Y-105470000D01*
X67370000Y-105470000D02*
X67370000Y-102810000D01*
X64770000Y-105470000D02*
X64770000Y-102810000D01*
X67370000Y-102810000D02*
X64770000Y-102810000D01*
X62170000Y-102810000D02*
X63500000Y-102810000D01*
X62170000Y-104140000D02*
X62170000Y-102810000D01*
%TO.C,D2*%
X56875000Y-66060000D02*
X59965000Y-66060000D01*
X58419538Y-60510000D02*
G75*
G02*
X59964830Y-66060000I462J-2990000D01*
G01*
X56875170Y-66060000D02*
G75*
G02*
X58420462Y-60510000I1544830J2560000D01*
G01*
X60920000Y-63500000D02*
G75*
G02*
X55920000Y-63500000I-2500000J0D01*
G01*
X55920000Y-63500000D02*
G75*
G02*
X60920000Y-63500000I2500000J0D01*
G01*
%TO.C,D1*%
X73620000Y-87630000D02*
G75*
G02*
X68620000Y-87630000I-2500000J0D01*
G01*
X68620000Y-87630000D02*
G75*
G02*
X73620000Y-87630000I2500000J0D01*
G01*
X73680000Y-89174830D02*
G75*
G02*
X68130000Y-87629538I-2560000J1544830D01*
G01*
X68130000Y-87630462D02*
G75*
G02*
X73680000Y-86085170I2990000J462D01*
G01*
X73680000Y-89175000D02*
X73680000Y-86085000D01*
%TD*%
M02*
